<?xml version="1.0" standalone="no"?>
<!DOCTYPE svg PUBLIC "-//W3C//DTD SVG 20010904//EN"
 "http://www.w3.org/TR/2001/REC-SVG-20010904/DTD/svg10.dtd">
<svg version="1.0" xmlns="http://www.w3.org/2000/svg"
 width="300.000000pt" height="225.000000pt" viewBox="0 0 300.000000 225.000000"
 preserveAspectRatio="xMidYMid meet">
<metadata>
Created by potrace 1.10, written by Peter Selinger 2001-2011
</metadata>
<g transform="translate(0.000000,225.000000) scale(0.100000,-0.100000)"
fill="#000000" stroke="none">
<path d="M1318 1784 c-32 -17 -48 -43 -48 -78 0 -14 -6 -29 -13 -33 -8 -4 -22
-20 -31 -35 -16 -25 -16 -28 3 -64 l20 -37 -27 -33 c-15 -18 -42 -38 -60 -44
-45 -16 -60 -50 -43 -97 12 -33 12 -38 -7 -52 -30 -24 -44 -59 -45 -112 -1
-46 -2 -48 -45 -69 -54 -27 -61 -43 -33 -80 25 -35 26 -43 5 -83 -46 -88 -70
-119 -102 -133 -34 -14 -48 -55 -34 -95 8 -21 4 -29 -30 -61 -38 -35 -40 -40
-36 -86 3 -44 0 -51 -27 -75 -17 -14 -37 -36 -44 -50 -12 -23 -11 -29 17 -69
54 -78 74 -94 127 -101 59 -8 95 10 95 48 0 26 18 33 37 14 23 -23 64 -17 111
16 48 33 58 61 38 107 -6 13 -2 20 17 27 14 6 31 19 36 30 17 30 14 127 -4
145 -8 8 -15 16 -15 18 0 2 20 4 45 4 68 2 75 12 75 114 0 104 5 120 34 120
35 0 47 19 30 46 -12 18 -13 27 -4 44 6 12 18 43 26 69 10 33 21 51 39 59 14
7 30 23 37 37 6 14 16 25 23 25 15 0 55 -55 55 -76 0 -19 41 -84 53 -84 4 0 7
-20 7 -45 0 -39 3 -47 25 -55 23 -9 25 -14 19 -48 -5 -32 -2 -43 21 -70 17
-20 36 -32 52 -32 20 0 24 -3 17 -17 -4 -10 -9 -36 -11 -58 -4 -36 -1 -42 26
-58 25 -15 29 -21 20 -35 -18 -29 14 -86 65 -118 l45 -29 -5 -55 c-5 -47 -3
-58 15 -77 32 -33 68 -39 108 -18 23 13 36 28 40 47 4 20 11 28 27 28 36 -1
86 -34 104 -70 16 -32 21 -35 56 -33 44 3 76 26 76 55 0 17 -15 49 -57 122 -7
12 -10 36 -7 56 4 26 1 40 -10 49 -9 7 -16 23 -16 35 0 33 -37 85 -65 92 -24
6 -25 9 -21 55 4 42 1 54 -21 80 -21 25 -31 29 -52 23 -46 -13 -89 -12 -95 1
-3 8 7 15 28 19 37 7 60 29 69 65 7 30 -33 74 -59 64 -14 -5 -16 -3 -9 13 21
48 17 82 -17 149 -18 37 -43 72 -55 78 -13 5 -19 15 -16 24 9 22 -28 125 -54
151 -20 20 -23 31 -18 61 7 44 -11 66 -50 59 -24 -5 -34 5 -16 16 19 12 21 57
5 91 -17 36 -68 75 -99 75 -9 0 -24 9 -33 20 -29 34 -64 35 -105 2 -43 -34
-79 -33 -114 5 -25 26 -56 29 -95 7z m87 -15 c12 -19 -5 -60 -31 -71 -14 -7
-23 -17 -20 -25 3 -8 -1 -16 -9 -19 -24 -10 -17 -24 13 -25 26 -2 26 -2 3 -6
-16 -3 -29 1 -37 11 -11 15 -12 15 -18 1 -3 -9 -10 -14 -15 -10 -6 3 -8 -4 -6
-15 3 -17 0 -21 -17 -18 -24 3 -37 28 -15 28 8 0 14 8 13 17 0 10 7 19 19 21
44 7 51 14 28 23 -51 19 -8 99 53 99 18 0 36 -5 39 -11z m205 -94 l0 -95 -42
0 c-23 0 -39 3 -35 6 9 9 -22 66 -33 59 -4 -3 -12 -19 -15 -37 l-7 -31 -15 34
c-8 19 -13 48 -11 66 2 18 0 29 -5 26 -5 -3 -8 0 -5 7 7 21 28 24 28 5 0 -12
6 -16 20 -12 11 3 23 0 28 -7 4 -7 17 -15 29 -18 27 -7 37 15 22 45 l-12 21
-18 -22 c-9 -12 -20 -18 -24 -13 -9 16 38 59 68 60 l27 1 0 -95z m117 20 c28
-28 34 -41 31 -67 -3 -29 -7 -33 -36 -36 -26 -3 -39 3 -67 31 -51 51 -47 107
7 107 21 0 41 -11 65 -35z m-301 -57 c4 -6 0 -16 -9 -23 -24 -17 -21 -25 8
-25 16 0 25 -6 25 -15 0 -8 -8 -15 -18 -15 -10 0 -21 -3 -25 -6 -9 -10 14 -53
32 -57 9 -3 -19 -5 -63 -6 -58 -1 -77 -4 -73 -13 9 -24 -12 -61 -32 -55 -23 6
-51 -10 -51 -28 0 -10 11 -15 35 -15 19 0 35 5 35 10 0 15 36 12 50 -5 9 -10
9 -15 1 -15 -6 0 -11 -5 -11 -11 0 -5 5 -7 10 -4 14 9 13 -8 -2 -23 -15 -15
-48 -16 -48 -2 0 6 -8 10 -17 10 -15 0 -14 2 3 15 18 13 17 14 -18 15 -37 0
-55 -19 -20 -21 16 -1 16 -2 0 -6 -10 -2 -18 -9 -18 -14 0 -23 -41 -6 -64 27
-34 50 -24 79 25 75 17 -2 36 16 54 53 7 11 18 19 26 17 25 -6 121 -1 137 8
13 7 11 13 -12 35 -14 15 -24 32 -20 38 4 6 10 6 17 -1 6 -6 22 -10 37 -10 22
2 22 2 3 6 -30 6 -43 25 -36 51 6 24 27 29 39 10z m-103 -36 c-6 -15 -5 -15
10 -4 27 23 41 9 19 -18 l-20 -25 -20 25 c-14 18 -17 29 -10 37 14 17 29 6 21
-15z m-13 -37 c7 -9 19 -14 25 -11 16 6 55 -21 55 -37 0 -7 -5 -4 -11 6 -9 15
-18 17 -43 13 -35 -7 -74 13 -62 32 10 16 21 15 36 -3z m396 -7 c26 -25 31
-48 12 -48 -7 -1 -3 -6 10 -13 12 -7 19 -17 15 -21 -4 -5 3 -3 15 3 27 15 35
11 26 -13 -6 -16 -16 -16 -60 1 -6 2 -14 -3 -18 -12 -4 -10 -2 -14 5 -9 7 4
10 1 7 -6 -6 -20 -37 -21 -36 -2 2 37 -21 72 -47 72 -34 0 -32 13 5 27 17 6
30 18 30 27 0 22 8 20 36 -6z m-136 -22 c0 -7 6 -19 14 -26 19 -15 10 -38 -17
-43 -14 -3 -9 -5 13 -6 22 -1 30 -4 22 -9 -7 -5 -29 -7 -49 -5 -30 2 -33 0
-19 -10 14 -11 14 -12 -8 -13 -14 -1 -24 3 -23 9 1 7 -15 12 -41 13 -43 1 -74
14 -33 14 12 0 31 5 42 10 13 7 19 7 19 0 0 -5 11 -10 25 -10 27 0 30 7 15 30
-6 10 -10 11 -10 3 0 -26 -16 -12 -18 16 -2 24 2 30 20 34 42 8 48 7 48 -7z
m240 -6 c0 -13 -7 -20 -20 -20 -13 0 -20 7 -20 20 0 13 7 20 20 20 13 0 20 -7
20 -20z m-422 -117 c2 -26 -1 -43 -7 -43 -6 0 -11 6 -11 14 0 7 -7 19 -15 26
-8 7 -15 21 -15 32 0 14 6 19 23 16 18 -2 23 -10 25 -45z m98 15 c-9 -5 -14
-13 -11 -19 7 -11 3 -11 -20 -3 -13 6 -14 9 -3 16 11 8 10 9 -1 6 -8 -2 -15
-11 -17 -20 -1 -11 3 -15 14 -11 10 4 13 2 8 -6 -4 -6 -2 -19 5 -28 11 -12 11
-17 -2 -27 -22 -15 -12 -36 17 -36 15 0 24 -6 24 -15 0 -11 -11 -15 -37 -15
-25 0 -33 -3 -24 -9 9 -6 11 -18 6 -40 -7 -35 -32 -52 -45 -31 -6 9 -10 7 -15
-9 -3 -11 -10 -21 -14 -21 -5 0 -6 -11 -3 -25 3 -18 0 -25 -12 -25 -19 0 -20
-5 -6 -31 8 -15 7 -19 -5 -19 -8 0 -15 -7 -15 -15 0 -9 -11 -21 -25 -27 l-25
-11 31 -19 c16 -10 34 -16 39 -13 5 3 11 1 15 -5 3 -5 -3 -10 -14 -10 -24 0
-141 68 -141 82 0 6 6 5 15 -2 9 -7 25 -10 41 -6 37 10 17 27 -35 31 -35 3
-41 0 -41 -16 0 -12 -7 -19 -20 -19 -13 0 -20 7 -20 20 0 13 7 20 20 20 11 0
20 4 20 8 0 11 32 12 46 0 8 -5 14 -3 18 7 4 11 -3 19 -22 27 -15 5 -22 12
-15 15 7 2 21 0 31 -6 33 -18 92 19 104 64 3 11 9 28 13 38 6 14 2 17 -19 17
-14 0 -26 4 -26 9 0 5 -10 12 -22 14 -16 3 -12 5 11 6 20 0 42 -6 53 -16 18
-17 23 -10 19 26 -2 7 2 10 8 6 7 -3 8 0 5 9 -4 10 -1 16 10 16 12 0 10 -12
-15 -66 -16 -37 -27 -69 -25 -72 3 -2 13 14 22 37 16 40 24 48 37 35 9 -9 -4
-35 -14 -28 -5 3 -6 -3 -2 -12 6 -16 7 -15 20 2 17 23 17 40 -2 48 -27 10 -6
35 28 32 18 -2 23 -1 12 1 -11 3 -24 11 -28 19 -12 21 -55 17 -62 -6 -3 -11
-3 -24 0 -30 3 -5 1 -10 -4 -10 -6 0 -11 5 -11 10 0 6 -15 11 -32 12 l-33 1
34 4 c22 3 35 11 38 24 4 13 14 19 33 19 23 0 27 4 23 20 -3 13 0 20 8 20 11
0 11 2 -1 10 -8 5 -15 20 -15 33 -2 22 2 24 43 24 32 0 40 -2 28 -9z m119 -17
c-1 -25 -3 -26 -68 -27 -36 -1 -64 2 -62 7 3 4 21 6 40 5 19 -2 32 1 29 6 -3
5 -13 6 -22 4 -10 -3 -22 -2 -29 2 -7 4 11 8 39 9 28 0 45 -3 39 -7 -10 -5 -9
-9 2 -13 19 -7 16 21 -2 33 -9 5 -5 8 11 8 20 0 25 -5 23 -27z m231 8 c18 -19
18 -22 2 -50 -19 -32 -15 -59 9 -59 9 0 11 5 6 13 -13 22 -12 37 5 37 8 0 12
-3 9 -6 -3 -4 -2 -15 3 -25 8 -14 4 -21 -18 -36 -49 -34 -81 -44 -103 -33 -23
13 -25 52 -4 70 10 9 15 9 15 1 0 -6 -6 -11 -12 -12 -9 0 -9 -2 1 -6 11 -5 11
-7 0 -14 -12 -7 -11 -10 1 -21 8 -7 11 -9 7 -4 -4 5 -2 15 4 23 6 7 8 13 5 13
-4 0 -2 9 3 19 8 14 7 20 -4 24 -7 3 -15 1 -17 -4 -5 -15 -38 0 -38 17 0 18
14 18 51 -2 21 -10 29 -20 25 -31 -5 -13 -4 -14 9 -3 14 12 14 15 0 30 -18 20
-20 51 -3 68 16 16 22 15 44 -9z m-141 -16 c-3 -8 -5 -20 -5 -26 0 -6 -7 -4
-16 5 -18 18 -13 35 11 35 10 0 14 -6 10 -14z m-11 -69 c58 -59 14 -164 -69
-164 -27 0 -44 8 -66 29 -38 39 -39 87 -3 130 35 42 98 44 138 5z m-444 -38
c0 -8 -5 -18 -10 -21 -8 -5 -8 -11 -1 -19 6 -7 8 -15 5 -18 -3 -3 7 -9 21 -12
21 -5 26 -12 23 -34 -2 -20 -9 -28 -27 -30 -29 -5 -40 6 -43 41 -1 15 -6 27
-10 27 -4 0 -6 -12 -5 -27 1 -19 -3 -28 -13 -29 -8 0 -23 -4 -32 -9 -38 -16
-72 21 -47 51 7 8 21 13 31 11 15 -4 18 -1 13 14 -4 11 -1 27 6 35 11 13 9 14
-16 8 -21 -5 -26 -4 -20 5 5 9 21 11 51 6 29 -4 44 -2 44 4 0 6 7 11 15 11 8
0 15 -6 15 -14z m680 -60 c0 -15 -27 -29 -40 -21 -4 3 -14 -3 -21 -12 -12 -14
-11 -15 11 -8 30 9 30 9 58 0 24 -8 28 -20 11 -31 -7 -4 -2 -11 13 -18 26 -13
35 -50 18 -72 -8 -8 -30 -14 -58 -14 -54 0 -51 10 3 13 48 3 68 29 42 54 -16
16 -17 16 -18 -7 -1 -17 -3 -20 -6 -7 -9 33 -28 17 -24 -19 1 -8 -11 -8 -45
-1 -36 9 -44 14 -41 29 3 10 2 18 -3 18 -11 0 -27 -22 -34 -50 -4 -14 -4 -20
1 -13 5 7 14 9 23 3 8 -5 22 -4 33 2 15 8 18 7 15 -4 -3 -7 -21 -14 -41 -16
-35 -3 -37 -5 -37 -38 0 -19 6 -43 12 -54 17 -27 1 -52 -36 -56 -24 -2 -26 -1
-14 13 12 15 11 15 -12 3 -15 -8 -20 -15 -12 -18 6 -2 12 -10 12 -17 0 -10 9
-11 41 -4 50 12 57 7 53 -31 -3 -25 0 -30 17 -30 26 0 39 -37 27 -73 -14 -38
-54 -67 -94 -67 -27 0 -35 5 -40 24 -7 29 18 81 47 97 18 9 26 6 50 -17 28
-27 29 -27 29 -6 0 13 -8 25 -17 28 -10 3 -31 12 -46 20 -33 16 -67 19 -67 4
0 -21 -29 -9 -50 20 -26 36 -23 65 7 65 25 1 53 22 53 41 0 11 -16 14 -65 14
-36 0 -65 3 -65 8 0 4 36 6 80 4 53 -3 80 0 80 7 0 13 -45 25 -59 16 -7 -4
-11 9 -11 37 l0 43 65 30 c41 19 60 32 52 37 -8 5 0 19 28 47 40 40 75 53 75
27z m-130 -41 c-25 -36 -37 -45 -60 -45 -17 0 -30 5 -30 11 0 21 42 64 68 70
51 12 53 9 22 -36z m-182 -44 c19 -11 11 -45 -11 -49 -19 -4 -32 20 -23 43 6
17 15 19 34 6z m-418 -26 c0 -17 -46 -39 -61 -29 -15 9 -10 32 9 37 35 9 52 7
52 -8z m-96 -27 c20 -40 20 -48 -1 -48 -16 -1 -16 -2 2 -16 11 -8 19 -20 17
-25 -1 -6 5 -6 17 1 24 12 37 -3 16 -20 -12 -10 -20 -9 -39 3 -23 16 -24 15
-30 -9 -5 -17 -12 -24 -21 -20 -8 3 -14 2 -14 -2 3 -21 -2 -42 -11 -42 -19 0
-23 30 -7 48 9 10 16 35 15 60 0 37 -3 42 -24 42 -15 0 -24 6 -24 16 0 11 6
13 20 9 13 -4 25 1 37 14 23 28 29 27 47 -11z m566 2 c0 -5 7 -10 16 -10 13 0
14 -3 4 -15 -7 -8 -10 -25 -6 -39 3 -14 2 -28 -4 -31 -5 -3 -10 -2 -10 4 0 6
-7 8 -16 4 -13 -5 -15 -2 -10 14 4 13 1 27 -9 36 -18 19 -19 34 -2 40 21 9 37
7 37 -3z m280 -92 c0 -19 -2 -20 -11 -8 -9 13 -10 13 -6 0 2 -8 13 -14 24 -12
11 2 23 -4 26 -13 5 -11 0 -15 -15 -15 -12 0 -19 -3 -15 -6 11 -11 54 5 54 20
0 8 -4 13 -9 10 -4 -3 -5 2 -2 10 3 9 13 16 20 16 18 0 32 -32 16 -38 -6 -2
-8 -10 -5 -18 5 -14 1 -15 -62 -18 -25 -1 -31 -6 -35 -31 -5 -26 -10 -30 -36
-30 -21 0 -30 -4 -27 -12 3 -7 0 -13 -6 -13 -12 0 -14 11 -5 34 3 9 12 16 19
16 9 0 13 13 12 39 -2 39 -3 39 -24 26 -14 -9 -24 -11 -28 -5 -10 16 2 28 40
40 19 6 35 16 35 21 0 5 9 9 20 9 14 0 20 -7 20 -22z m-730 -16 c0 -5 -14 -21
-31 -38 -23 -22 -40 -29 -69 -29 -31 0 -37 3 -27 12 7 7 25 14 41 15 16 2 36
12 45 25 16 22 41 31 41 15z m68 -149 l3 -113 -47 0 c-37 0 -45 3 -40 15 3 8
2 15 -2 15 -4 0 -12 12 -19 26 -10 22 -10 25 3 20 10 -4 12 -2 8 6 -5 7 -3 8
5 3 7 -4 11 -16 8 -26 -3 -11 -1 -17 3 -14 5 3 11 -1 13 -7 3 -7 6 1 6 18 1
24 -5 33 -24 42 -31 14 -46 15 -25 2 13 -9 13 -10 0 -10 -9 0 -21 5 -28 12 -6
6 -15 8 -19 4 -4 -4 -1 -12 8 -16 14 -8 14 -15 5 -45 -6 -19 -14 -35 -17 -35
-11 0 -30 81 -23 102 3 12 1 24 -6 28 -7 4 -9 13 -6 19 10 16 36 13 36 -4 0
-8 5 -15 11 -15 12 0 73 59 75 72 1 4 2 11 3 14 0 3 16 4 34 2 l32 -3 3 -112z
m-250 46 c-2 -4 5 -16 15 -27 16 -17 16 -23 5 -41 -15 -25 -32 -33 -54 -24
-11 4 -12 8 -4 13 7 5 8 14 1 33 -7 17 -7 27 -1 27 6 0 10 -7 10 -16 0 -14 2
-14 16 -3 14 12 14 14 -6 21 -28 10 -39 3 -33 -21 3 -11 -2 -21 -13 -25 -15
-6 -16 -9 -4 -16 18 -11 23 -43 5 -36 -8 3 -12 -2 -11 -12 2 -13 14 -17 55
-18 30 0 46 3 39 8 -10 6 -10 8 2 8 9 0 11 3 5 8 -13 9 -13 34 0 39 6 2 11
-15 11 -37 l1 -39 -95 2 -96 2 -1 28 c-2 22 2 27 14 22 11 -3 10 0 -3 10 -19
14 -19 15 7 15 40 0 79 28 72 51 -5 14 0 22 17 29 25 10 51 9 46 -1z m912 -52
c0 -16 3 -18 12 -9 16 16 75 15 81 0 3 -7 6 -3 6 9 2 57 61 24 61 -34 0 -61
-44 -84 -62 -32 -7 20 -15 28 -25 25 -8 -3 -23 -6 -33 -6 -15 0 -17 -7 -14
-47 l3 -48 -8 42 c-9 50 -21 67 -21 30 0 -29 -18 -35 -38 -15 -17 17 -15 78 4
99 20 22 34 16 34 -14z m-938 -67 c-2 -8 5 -9 20 -5 13 4 20 4 16 0 -4 -4 -24
-9 -45 -11 -36 -2 -37 -2 -14 10 15 8 20 15 12 19 -8 4 -7 5 1 3 7 -2 12 -9
10 -16z m1019 -68 c-6 -2 -11 -12 -11 -21 0 -10 -8 -25 -18 -34 -18 -16 -18
-15 -14 14 2 17 11 33 18 36 8 3 14 19 14 37 0 47 14 55 18 10 2 -21 -1 -40
-7 -42z m-851 13 c0 -19 -35 -28 -58 -16 -11 6 -22 7 -26 4 -3 -3 -6 2 -6 11
0 14 5 17 24 12 14 -3 27 -2 31 4 8 13 35 1 35 -15z m978 -21 c14 -9 21 -22
18 -31 -3 -8 -1 -11 4 -8 16 10 12 -38 -6 -63 -8 -12 -21 -22 -28 -22 -8 0
-21 -11 -30 -25 -9 -14 -22 -25 -28 -25 -6 0 -3 10 8 21 15 17 16 23 5 27 -53
18 -68 87 -25 121 32 25 52 26 82 5z m-1123 -19 c0 -13 -8 -21 -21 -23 -19 -3
-21 -8 -16 -47 4 -37 1 -47 -21 -69 -55 -55 -147 -18 -147 58 0 75 87 119 141
71 16 -15 20 -16 19 -5 -5 32 1 41 23 38 14 -2 22 -10 22 -23z m932 9 c4 -10
-1 -22 -11 -30 -15 -10 -16 -16 -6 -35 11 -20 10 -21 -8 -17 -15 4 -18 1 -15
-11 3 -11 -5 -22 -24 -30 l-28 -13 25 -14 c14 -7 33 -13 43 -14 20 0 23 -20 3
-20 -18 0 -149 81 -142 87 2 3 13 0 24 -6 21 -11 52 -5 52 9 0 4 -7 11 -16 14
-10 4 -14 14 -11 26 3 11 1 21 -4 21 -5 1 -14 2 -21 3 -6 0 -13 7 -15 14 -6
17 22 15 37 -3 10 -12 15 -12 36 2 13 8 24 11 24 7 0 -5 5 -1 11 9 13 22 38
22 46 1z m-777 -79 l0 -75 -87 1 c-49 1 -76 4 -60 6 27 4 39 23 13 23 -9 0
-12 8 -8 25 2 15 0 25 -7 25 -6 0 -11 9 -11 21 0 15 5 19 16 15 8 -3 12 -2 9
4 -3 6 -1 10 4 10 6 0 11 -4 11 -10 0 -5 7 -10 15 -10 8 0 15 -4 15 -10 0 -5
-4 -10 -8 -10 -4 0 -8 -18 -7 -40 l0 -40 48 0 c26 0 47 5 47 10 0 9 -23 14
-57 13 -8 -1 -13 13 -13 37 0 30 5 39 27 49 21 10 28 9 36 -1 6 -10 8 -9 4 4
-5 14 0 28 10 28 2 0 3 -34 3 -75z m798 -51 c3 -38 -12 -43 -32 -12 -7 12 -6
21 3 32 20 24 27 20 29 -20z m222 -44 c0 -15 9 -35 21 -46 44 -40 67 -124 34
-124 -9 0 -15 9 -15 23 l0 22 -13 -24 c-19 -37 -32 -30 -33 17 -1 46 -10 64
-23 43 -7 -10 -14 -10 -39 3 -17 9 -34 21 -37 26 -4 6 -15 8 -24 5 -10 -3 -24
1 -31 10 -11 13 -10 19 4 33 16 16 19 16 39 -9 23 -27 63 -43 72 -29 3 5 -5
10 -17 12 -15 2 -23 10 -23 23 0 29 33 31 45 3 9 -20 10 -18 6 14 -2 20 -2 39
1 42 12 11 33 -17 33 -44z m-1350 -14 c0 -18 -25 -27 -38 -14 -13 13 -46 2
-37 -12 3 -5 1 -10 -5 -10 -25 0 -3 35 25 41 48 10 55 10 55 -5z m78 -24 c5
-17 -39 -32 -59 -19 -9 6 -25 7 -35 3 -21 -8 -30 -5 -26 8 2 5 -4 3 -13 -4
-15 -13 -15 -15 5 -22 12 -4 25 -6 30 -3 4 3 10 -2 13 -9 8 -21 -18 -39 -45
-31 -18 5 -20 4 -8 -4 8 -6 29 -8 46 -5 25 5 35 1 48 -17 9 -13 16 -18 16 -12
0 6 -7 18 -15 26 -8 8 -11 18 -7 22 4 5 2 5 -4 2 -6 -4 -16 5 -22 18 -9 20 -9
25 3 25 9 0 12 -6 8 -17 -4 -10 -2 -14 5 -9 6 3 15 -1 20 -9 7 -13 14 -14 35
-6 15 6 27 7 27 2 0 -5 -11 -12 -25 -15 -22 -6 -23 -9 -13 -31 6 -14 17 -25
25 -25 7 0 13 -4 13 -10 0 -6 -32 -10 -75 -10 -43 0 -75 4 -75 10 0 6 18 10
40 10 22 0 40 4 40 8 0 19 -25 30 -54 25 -22 -3 -36 0 -45 11 -18 22 -5 39 21
25 16 -9 19 -8 16 3 -3 7 -18 13 -34 13 -32 1 -54 11 -54 26 0 5 7 9 16 9 8 0
12 -5 8 -11 -4 -8 0 -7 15 1 12 6 19 15 16 21 -4 5 1 9 9 9 8 0 17 -4 20 -8 7
-11 76 -2 76 10 0 14 33 5 38 -10z m1070 2 c15 -11 22 -25 22 -50 0 -78 -90
-103 -125 -33 -35 66 41 127 103 83z m-998 -6 c0 -8 15 -13 40 -13 25 0 40 5
40 13 0 19 25 14 45 -8 17 -19 17 -21 0 -40 -22 -25 -42 -26 -48 -2 -3 9 -5 0
-6 -20 0 -21 -6 -38 -12 -38 -8 0 -10 12 -6 35 3 19 2 35 -4 35 -5 0 -9 -6 -9
-12 0 -8 -7 -5 -15 6 -8 11 -15 15 -15 9 0 -7 5 -15 10 -18 6 -3 10 -17 10
-31 0 -13 -4 -24 -10 -24 -5 0 -10 11 -10 24 0 18 -4 23 -18 19 -10 -2 -24 2
-31 11 -9 11 -19 13 -36 6 -22 -8 -35 -5 -35 11 0 4 9 5 20 2 14 -4 27 3 41
21 21 27 49 35 49 14z"/>
<path d="M1328 1759 c-10 -5 -15 -16 -11 -25 5 -13 8 -13 24 2 31 28 22 44
-13 23z"/>
<path d="M1374 1754 c1 -13 -10 -24 -43 -41 -1 -1 0 -6 4 -12 8 -15 45 5 45
24 0 7 5 15 12 17 6 2 8 10 4 16 -10 17 -24 15 -22 -4z"/>
<path d="M1576 1729 c13 -25 13 -36 4 -59 -7 -16 -9 -34 -5 -39 3 -6 3 -17 -2
-23 -5 -9 -9 -3 -13 16 -3 16 -11 31 -17 33 -10 4 -9 -4 1 -29 9 -20 22 -34
35 -36 20 -3 21 1 21 82 0 80 -1 86 -20 86 -20 0 -20 -1 -4 -31z"/>
<path d="M1634 1705 c-12 -30 2 -35 25 -11 l24 26 -22 0 c-12 0 -24 -7 -27
-15z"/>
<path d="M1665 1680 l-27 -28 22 -22 22 -22 29 28 c21 20 26 31 19 44 -16 30
-37 30 -65 0z"/>
<path d="M1721 1626 l-24 -26 22 0 c22 0 36 20 29 40 -2 6 -14 0 -27 -14z"/>
<path d="M1247 1484 c-3 -4 1 -17 10 -30 17 -27 26 -25 28 6 1 11 -1 18 -3 15
-3 -3 -10 0 -17 5 -7 5 -15 7 -18 4z"/>
<path d="M1190 1360 c0 -16 5 -30 10 -30 6 0 10 14 10 30 0 17 -4 30 -10 30
-5 0 -10 -13 -10 -30z"/>
<path d="M1300 1360 c0 -16 5 -30 10 -30 6 0 10 14 10 30 0 17 -4 30 -10 30
-5 0 -10 -13 -10 -30z"/>
<path d="M1510 1519 c0 -7 3 -9 7 -5 4 3 13 -4 20 -16 9 -17 12 -19 13 -6 0 9
6 19 13 21 7 4 6 6 -5 6 -9 1 -23 4 -32 7 -10 4 -16 1 -16 -7z"/>
<path d="M1309 1110 c-1 -5 -2 -14 -3 -19 -2 -18 -16 -24 -16 -8 0 18 -15 23
-25 8 -3 -5 5 -17 17 -26 23 -16 23 -16 4 -30 -23 -17 -14 -20 15 -4 16 8 18
14 9 24 -13 16 3 30 23 19 9 -5 9 -4 0 6 -6 7 -9 19 -6 26 3 8 0 14 -6 14 -6
0 -12 -4 -12 -10z"/>
<path d="M1563 1324 c-15 -14 -23 -23 -16 -20 6 3 30 -10 53 -29 48 -40 60
-42 84 -16 20 22 11 49 -26 75 -32 23 -63 20 -95 -10z"/>
<path d="M1535 1280 c-9 -15 5 -57 26 -76 26 -23 82 -23 109 1 28 25 25 32
-12 27 -26 -3 -39 3 -62 27 -30 32 -50 39 -61 21z"/>
<path d="M1905 1191 c6 -10 2 -12 -14 -6 -13 4 -21 2 -21 -5 0 -7 -9 -9 -22
-5 l-23 6 21 -18 c12 -10 24 -25 28 -33 3 -8 4 -3 2 13 -2 15 1 27 5 27 5 0 9
-6 9 -13 0 -8 6 -14 13 -14 14 0 16 42 2 54 -4 5 -5 2 0 -6z"/>
<path d="M1680 912 c0 -6 5 -14 10 -17 6 -3 10 -15 10 -26 0 -10 5 -19 10 -19
17 0 11 30 -10 52 -11 12 -20 17 -20 10z"/>
<path d="M1777 792 c-23 -25 -21 -34 8 -62 l25 -24 21 21 c29 29 16 50 -18 28
-32 -21 -45 -9 -15 14 20 15 21 19 9 29 -11 9 -17 8 -30 -6z"/>
<path d="M1744 724 c3 -9 6 -18 6 -20 0 -2 10 -4 22 -4 20 0 21 1 3 20 -22 24
-40 26 -31 4z"/>
<path d="M1236 908 c14 -27 15 -37 5 -65 -7 -18 -10 -42 -6 -52 3 -11 -1 -26
-10 -35 -15 -15 -14 -16 9 -16 28 0 29 4 30 147 1 49 -1 53 -22 53 -22 0 -22
-1 -6 -32z"/>
<path d="M1189 896 c-31 -27 -26 -41 14 -48 35 -7 44 10 25 45 l-13 25 -26
-22z"/>
<path d="M2050 806 c0 -25 5 -48 10 -51 6 -3 10 1 10 10 0 9 5 13 10 10 6 -4
10 7 9 27 -1 31 -1 32 -9 8 -8 -24 -8 -23 -9 8 -2 49 -21 38 -21 -12z"/>
<path d="M2050 633 c0 -5 5 -15 10 -23 7 -11 12 -12 21 -3 6 6 8 16 5 22 -8
12 -36 15 -36 4z"/>
<path d="M2134 629 c-3 -6 -1 -16 5 -22 9 -9 14 -8 21 3 5 8 10 18 10 23 0 11
-28 8 -36 -4z"/>
<path d="M2090 595 c0 -8 9 -15 20 -15 11 0 20 7 20 15 0 8 -9 15 -20 15 -11
0 -20 -7 -20 -15z"/>
<path d="M859 650 c-15 -12 -19 -19 -10 -20 7 0 28 -13 47 -29 23 -21 39 -28
55 -24 15 4 20 3 15 -5 -12 -21 -44 -13 -80 19 -37 32 -56 31 -56 0 0 -35 35
-65 74 -65 44 0 66 20 71 63 3 25 -2 39 -20 57 -29 29 -65 31 -96 4z"/>
<path d="M1895 651 c-3 -6 -4 -15 0 -20 3 -5 1 -12 -5 -16 -6 -3 -10 3 -10 16
0 19 -2 20 -16 8 -15 -12 -14 -15 7 -32 19 -15 20 -20 8 -28 -7 -5 -18 -9 -23
-9 -5 0 -7 -2 -4 -5 3 -3 17 0 32 6 20 9 23 15 15 25 -9 10 -7 15 4 20 8 3 14
12 13 19 -3 21 -13 28 -21 16z"/>
<path d="M2181 503 c0 -18 -10 -42 -21 -53 -11 -11 -16 -20 -12 -20 4 0 14 6
21 13 20 20 44 -20 37 -63 -4 -24 -3 -30 4 -20 5 8 10 23 10 33 0 29 19 19 29
-15 7 -24 9 -27 10 -11 1 12 -14 42 -33 66 -19 25 -36 58 -39 74 -4 27 -4 27
-6 -4z"/>
</g>
</svg>
